<svg width="1577" height="678" xmlns="http://www.w3.org/2000/svg" xmlns:xlink="http://www.w3.org/1999/xlink" xml:space="preserve" overflow="hidden"><g transform="translate(-467 -495)"><g><rect x="474.5" y="501.5" width="588" height="227" stroke="#000000" stroke-width="4.58333" stroke-linecap="butt" stroke-linejoin="miter" stroke-miterlimit="8" stroke-opacity="1" fill="#FFFFFF" fill-opacity="1"/><text fill="#000000" fill-opacity="1" font-family="DengXian,DengXian_MSFontService,sans-serif" font-style="normal" font-variant="normal" font-weight="400" font-stretch="normal" font-size="83" text-anchor="start" direction="ltr" writing-mode="lr-tb" unicode-bidi="normal" text-decoration="none" transform="matrix(1 0 0 1 573.598 642)">Private Key</text><rect x="1451.5" y="501.5" width="588" height="227" stroke="#000000" stroke-width="4.58333" stroke-linecap="butt" stroke-linejoin="miter" stroke-miterlimit="8" stroke-opacity="1" fill="#FFFFFF" fill-opacity="1"/><text fill="#000000" fill-opacity="1" font-family="DengXian,DengXian_MSFontService,sans-serif" font-style="normal" font-variant="normal" font-weight="400" font-stretch="normal" font-size="83" text-anchor="start" direction="ltr" writing-mode="lr-tb" unicode-bidi="normal" text-decoration="none" transform="matrix(1 0 0 1 1564.36 642)">Public Key</text><rect x="474.5" y="939.5" width="588" height="227" stroke="#000000" stroke-width="4.58333" stroke-linecap="butt" stroke-linejoin="miter" stroke-miterlimit="8" stroke-opacity="1" fill="#FFFFFF" fill-opacity="1"/><text fill="#000000" fill-opacity="1" font-family="DengXian,DengXian_MSFontService,sans-serif" font-style="normal" font-variant="normal" font-weight="400" font-stretch="normal" font-size="83" text-anchor="start" direction="ltr" writing-mode="lr-tb" unicode-bidi="normal" text-decoration="none" transform="matrix(1 0 0 1 700.213 1080)">WIF</text><rect x="1451.5" y="939.5" width="588" height="227" stroke="#000000" stroke-width="4.58333" stroke-linecap="butt" stroke-linejoin="miter" stroke-miterlimit="8" stroke-opacity="1" fill="#FFFFFF" fill-opacity="1"/><text fill="#000000" fill-opacity="1" font-family="DengXian,DengXian_MSFontService,sans-serif" font-style="normal" font-variant="normal" font-weight="400" font-stretch="normal" font-size="83" text-anchor="start" direction="ltr" writing-mode="lr-tb" unicode-bidi="normal" text-decoration="none" transform="matrix(1 0 0 1 1601.88 1080)">Address</text><path d="M1062 612.854 1427.88 612.854 1427.88 615.146 1062 615.146ZM1423.29 600.25 1450.79 614 1423.29 627.75Z" fill="#000000" fill-rule="nonzero" fill-opacity="1"/><path d="M769.146 750.917 769.146 915.601 766.854 915.601 766.854 750.917ZM754.25 755.5 768 728 781.75 755.5ZM781.75 911.018 768 938.518 754.25 911.018Z" fill="#000000" fill-rule="nonzero" fill-opacity="1"/><path d="M1746.15 728 1746.15 915.601 1743.85 915.601 1743.85 728ZM1758.75 911.018 1745 938.518 1731.25 911.018Z" fill="#000000" fill-rule="nonzero" fill-opacity="1"/></g></g></svg>